# xmcd
#
# Track frame offsets:
#       150
#       19827
#       38521
#
# Disc length: 768 seconds
#
# Revision: 1
# Processed by: cddbd v1.5.2PL0 Copyright (c) Steve Scherf et al.
# Submitted via: FreeDbEdit v0.1
#
DISCID=1702fe03
DTITLE=3LW - No More (Baby I'ma Do Right) Single Import
DYEAR=2000
DGENRE=R&B
TTITLE0=No More (Baby Ima Do Right
TTITLE1=I Can't Take It (No More Remix) (ft Nas) (Main)
TTITLE2=Dear Diary
EXTD=
EXTT0=
EXTT1=
EXTT2=
PLAYORDER=
